<?xml version="1.0" standalone="no"?>
<!DOCTYPE svg PUBLIC "-//W3C//DTD SVG 20010904//EN"
 "http://www.w3.org/TR/2001/REC-SVG-20010904/DTD/svg10.dtd">
<svg version="1.0" xmlns="http://www.w3.org/2000/svg"
 width="279.000000pt" height="276.000000pt" viewBox="0 0 279.000000 276.000000"
 preserveAspectRatio="xMidYMid meet">

<g transform="translate(0.000000,276.000000) scale(0.100000,-0.100000)"
fill="#000000" stroke="none">
<path d="M0 1380 c0 -913 3 -1380 10 -1380 7 0 10 467 10 1380 0 913 -3 1380
-10 1380 -7 0 -10 -467 -10 -1380z"/>
<path d="M1278 2590 c-166 -28 -343 -131 -443 -258 -55 -68 -117 -192 -141
-282 -22 -80 -25 -270 -5 -350 7 -30 35 -100 61 -155 107 -222 313 -371 554
-403 l69 -9 -6 68 c-9 111 -53 170 -169 230 -20 10 -57 37 -83 59 -53 46 -88
50 -93 11 -3 -18 12 -39 70 -94 l73 -69 -50 27 c-129 73 -174 129 -205 257
-24 100 -42 138 -65 138 -24 0 -25 -13 -9 -123 15 -108 30 -153 79 -237 l26
-45 -48 52 c-167 179 -222 445 -143 685 139 418 652 592 1036 353 341 -213
417 -696 159 -1017 -54 -67 -77 -77 -39 -16 15 23 33 58 41 77 17 40 54 251
47 263 -16 26 -57 -9 -68 -57 -28 -126 -51 -179 -99 -231 -45 -50 -163 -131
-174 -120 -3 2 25 27 60 55 61 48 89 90 80 119 -9 23 -46 12 -88 -27 -24 -22
-66 -51 -94 -66 -64 -32 -124 -85 -144 -128 -18 -38 -33 -152 -21 -160 5 -2
38 -1 74 4 262 35 499 240 590 509 30 89 38 276 16 379 -47 222 -221 430 -432
515 -121 49 -286 68 -416 46z"/>
<path d="M1341 2432 c9 -59 22 -87 45 -96 14 -5 16 -1 11 21 -3 16 -9 37 -13
47 -5 14 -4 17 5 12 23 -15 32 -60 25 -123 -3 -35 -9 -63 -13 -63 -3 0 -14 19
-23 41 -11 27 -21 38 -29 33 -8 -4 -9 -3 -5 4 10 17 -48 42 -99 42 l-45 0 25
-50 c27 -52 70 -84 108 -78 l22 3 -21 21 c-12 12 -30 26 -40 32 -10 6 -15 14
-11 18 12 12 90 -49 98 -76 4 -14 7 -86 8 -160 l0 -135 -34 37 c-24 26 -35 48
-36 70 -1 25 -3 27 -6 10 -3 -17 -9 -22 -21 -17 -9 4 -25 10 -36 13 -31 8 -14
-21 22 -39 18 -9 48 -34 67 -55 34 -36 35 -41 35 -113 l-1 -76 -34 40 c-25 29
-32 46 -29 65 3 14 -1 34 -10 45 -15 20 -15 19 -16 -6 0 -14 5 -30 12 -37 9
-9 9 -12 0 -12 -6 0 -17 10 -23 23 -17 33 -51 67 -66 67 -19 0 -16 -18 8 -39
48 -42 92 -91 87 -96 -2 -2 -23 1 -46 7 -44 11 -78 5 -67 -12 3 -5 30 -10 58
-10 30 0 62 -6 73 -15 35 -24 54 -77 54 -148 0 -59 -3 -68 -26 -86 -48 -38
-140 -21 -173 31 -15 25 -6 36 17 20 35 -25 62 -32 87 -22 14 5 25 14 25 20 0
7 -6 8 -19 0 -40 -21 -80 11 -81 63 -1 20 -2 20 -16 -5 -17 -32 -12 -31 -53
-17 -41 14 -83 87 -43 75 9 -3 38 -2 63 2 l46 7 -34 22 c-33 22 -34 22 -28 3
10 -31 -31 -26 -66 9 -45 46 -37 118 12 106 15 -4 32 0 44 10 20 16 20 16 -1
10 -50 -13 -76 32 -49 85 15 29 35 40 35 20 0 -5 9 -14 21 -20 20 -11 20 -11
4 14 -30 45 7 116 60 116 14 0 25 4 25 10 0 5 11 17 25 26 20 13 33 14 65 6
36 -9 40 -8 40 9 0 14 -8 19 -27 20 -52 2 -78 -3 -103 -19 -14 -9 -42 -25 -63
-34 -29 -13 -43 -28 -54 -58 -9 -22 -20 -40 -25 -40 -13 0 -51 -89 -45 -105 3
-7 -1 -32 -9 -55 -14 -40 -13 -61 6 -105 4 -11 16 -42 25 -69 12 -32 27 -54
45 -64 16 -9 35 -31 44 -49 29 -62 139 -93 205 -58 16 8 31 22 35 31 5 13 12
11 43 -16 33 -29 41 -32 89 -28 61 5 130 45 140 81 3 12 20 31 37 42 22 14 36
34 45 65 8 25 21 61 29 79 13 28 14 44 5 80 -6 26 -13 67 -17 92 -4 31 -14 54
-30 69 -14 13 -25 28 -25 33 0 19 -50 76 -72 83 -13 4 -35 16 -50 27 -18 14
-42 20 -72 20 -50 -1 -66 -8 -66 -28 0 -11 6 -12 30 -3 37 12 75 4 98 -22 9
-11 25 -20 35 -20 29 0 67 -45 67 -79 0 -22 4 -29 14 -25 8 3 21 -5 30 -18 22
-31 20 -81 -4 -103 -28 -26 -25 -40 5 -21 24 16 25 15 31 -9 9 -37 -3 -73 -32
-91 -19 -13 -28 -14 -37 -5 -20 20 -31 12 -12 -9 10 -11 26 -20 37 -20 10 0
18 -3 18 -7 0 -14 -40 -73 -49 -73 -5 0 -16 -3 -24 -6 -9 -3 -24 3 -34 13 -16
16 -22 17 -43 6 -22 -11 -23 -13 -5 -13 11 0 31 -9 45 -20 l25 -20 -28 -25
c-21 -18 -35 -24 -50 -19 -32 10 -47 24 -47 46 0 10 -4 16 -10 13 -17 -11 -11
-35 16 -60 l27 -25 -37 0 c-47 0 -85 36 -87 82 -3 59 3 123 12 140 28 53 66
61 111 23 36 -30 53 -33 38 -6 -5 11 -26 25 -44 32 -19 7 -33 16 -30 20 2 4
29 13 59 19 36 7 59 18 65 31 9 16 7 19 -10 19 -11 0 -28 -8 -39 -19 -21 -21
-71 -36 -71 -21 0 9 16 27 54 58 19 15 21 32 4 32 -21 0 -34 -13 -56 -55 -11
-22 -39 -57 -61 -78 -38 -35 -41 -36 -41 -15 0 46 21 93 59 132 21 23 42 51
46 64 3 12 12 22 19 22 7 0 21 9 31 20 15 17 16 20 3 20 -9 0 -21 -7 -28 -15
-15 -19 -30 -19 -30 -2 0 8 -9 22 -20 32 -24 22 -26 8 -4 -23 17 -25 15 -73
-3 -80 -8 -2 -13 6 -13 23 0 14 -4 23 -10 20 -5 -3 -7 -19 -3 -36 5 -29 -17
-69 -39 -69 -4 0 -8 69 -8 153 1 171 8 196 70 242 52 38 59 30 12 -17 -23 -22
-42 -45 -42 -51 0 -18 65 3 91 31 29 29 72 119 61 126 -13 8 -91 -11 -117 -28
-15 -10 -35 -38 -46 -63 -11 -25 -21 -44 -23 -42 -3 2 0 44 6 93 10 86 10 89
-13 112 -13 13 -38 26 -55 30 l-31 6 8 -50z"/>
<path d="M910 1699 c0 -20 32 -134 42 -149 13 -20 1 116 -13 141 -11 21 -29
25 -29 8z"/>
<path d="M1881 1697 c-10 -13 -35 -156 -28 -164 6 -5 24 43 37 97 6 25 13 53
16 63 6 20 -9 23 -25 4z"/>
<path d="M976 1580 c8 -96 24 -115 24 -29 0 42 -5 72 -15 85 -13 17 -14 12 -9
-56z"/>
<path d="M1830 1636 c-16 -20 -23 -163 -7 -147 10 10 28 149 22 159 -1 1 -8
-4 -15 -12z"/>
<path d="M220 895 c0 -108 1 -115 20 -115 18 0 20 7 20 70 0 39 4 70 8 70 5 0
19 -22 32 -50 13 -27 28 -50 34 -50 6 0 25 26 43 58 l32 57 1 -77 c0 -71 2
-78 20 -78 19 0 20 7 20 116 0 113 -1 115 -22 112 -14 -2 -32 -23 -56 -67
l-35 -63 -36 66 c-28 51 -41 66 -58 66 -23 0 -23 -2 -23 -115z"/>
<path d="M570 986 c-5 -14 -15 -38 -21 -53 -6 -16 -21 -56 -34 -90 l-24 -63
23 0 c15 0 27 9 34 26 11 22 17 25 55 22 32 -2 44 -8 52 -25 9 -21 56 -34 55
-15 -1 4 -20 54 -43 112 -34 86 -46 106 -64 108 -17 3 -26 -4 -33 -22z m59
-113 c1 -8 -11 -13 -30 -13 -33 0 -33 3 -7 70 l10 25 13 -35 c8 -19 14 -41 14
-47z"/>
<path d="M747 1003 c-4 -3 -7 -55 -7 -115 l0 -108 25 0 c23 0 24 3 27 70 l3
71 53 -71 c34 -45 59 -70 72 -70 19 0 20 7 20 115 0 108 -1 115 -20 115 -17 0
-19 -8 -22 -77 l-3 -77 -58 77 c-53 72 -74 87 -90 70z"/>
<path d="M1055 1000 c-64 -26 -92 -110 -55 -168 30 -48 80 -67 133 -50 46 14
87 64 87 105 0 84 -89 145 -165 113z m95 -50 c25 -25 26 -80 2 -111 -26 -31
-78 -31 -104 0 -41 52 -10 131 52 131 17 0 39 -9 50 -20z"/>
<path d="M1350 921 c0 -101 16 -134 70 -145 38 -7 94 15 109 42 6 12 11 60 11
107 0 83 -1 86 -22 83 -20 -3 -22 -8 -20 -53 1 -27 -2 -68 -6 -89 -6 -32 -12
-41 -35 -47 -22 -6 -33 -3 -48 12 -16 16 -19 33 -19 99 0 73 -2 80 -20 80 -18
0 -20 -7 -20 -89z"/>
<path d="M1590 895 c0 -107 1 -115 20 -115 17 0 19 8 22 73 l3 72 55 -72 c36
-49 61 -73 75 -73 19 0 20 6 19 112 -1 108 -2 113 -23 116 -20 3 -21 -1 -21
-74 l0 -78 -57 77 c-34 46 -64 77 -75 77 -16 0 -18 -11 -18 -115z"/>
<path d="M1840 895 c0 -107 1 -115 20 -115 17 0 19 8 22 73 l3 72 55 -72 c32
-43 62 -73 72 -73 16 0 18 12 18 115 0 108 -1 115 -20 115 -17 0 -19 -8 -22
-76 l-3 -75 -54 75 c-34 48 -61 76 -72 76 -17 0 -19 -10 -19 -115z"/>
<path d="M2121 904 c-23 -58 -41 -110 -41 -115 0 -21 41 -8 50 16 8 22 16 25
55 25 39 0 47 -3 55 -25 7 -17 17 -25 34 -25 24 0 25 1 11 33 -7 17 -27 69
-45 115 -27 70 -35 82 -55 82 -20 0 -28 -14 -64 -106z m98 -36 c1 -5 -14 -8
-33 -8 l-35 0 16 47 16 48 18 -40 c10 -22 18 -43 18 -47z"/>
<path d="M2290 990 c0 -16 7 -20 35 -20 l35 0 0 -95 c0 -95 0 -95 25 -95 25 0
25 0 25 95 l0 95 35 0 c28 0 35 4 35 20 0 19 -7 20 -95 20 -88 0 -95 -1 -95
-20z"/>
<path d="M2510 895 l0 -115 25 0 25 0 0 115 0 115 -25 0 -25 0 0 -115z"/>
<path d="M342 588 c1 -50 2 -54 5 -20 2 23 8 42 14 42 5 0 9 -3 9 -7 0 -5 14
-24 30 -43 l29 -35 -1 65 c-1 60 -1 62 -7 20 l-6 -45 -30 42 c-16 24 -33 43
-37 43 -5 0 -7 -28 -6 -62z"/>
<path d="M470 590 l0 -60 35 0 c19 0 35 5 35 10 0 6 -13 10 -30 10 -20 0 -30
5 -30 15 0 9 9 15 25 15 14 0 25 5 25 10 0 6 -12 10 -26 10 -37 0 -28 33 11
41 29 6 29 7 -7 8 l-38 1 0 -60z"/>
<path d="M570 602 c0 -52 12 -72 45 -72 33 0 45 20 44 74 -1 52 -3 50 -14 -16
-5 -32 -10 -38 -30 -38 -23 0 -25 4 -25 50 0 28 -4 50 -10 50 -5 0 -10 -22
-10 -48z"/>
<path d="M699 633 c0 -10 -2 -25 -3 -33 -1 -8 1 -28 5 -45 l7 -30 1 28 c1 34
14 35 36 1 19 -29 32 -26 16 4 -7 13 -7 22 0 29 6 6 9 21 7 34 -2 19 -10 25
-35 27 -26 3 -33 -1 -34 -15z m50 -2 c19 -12 6 -41 -19 -41 -13 0 -20 7 -20
18 0 31 14 39 39 23z"/>
<path d="M828 638 c-25 -21 -28 -55 -6 -83 22 -29 44 -32 76 -9 26 18 30 65 6
88 -19 19 -54 21 -76 4z m67 -22 c21 -31 5 -66 -28 -66 -44 0 -62 43 -31 74
22 23 41 20 59 -8z"/>
<path d="M950 591 c0 -34 4 -61 10 -61 6 0 10 8 10 18 0 11 12 22 31 29 25 10
30 16 27 40 -3 24 -8 28 -40 31 l-38 3 0 -60z m60 34 c15 -18 5 -35 -21 -35
-14 0 -19 7 -19 25 0 28 21 33 40 10z"/>
<path d="M1067 643 c-16 -15 -5 -44 23 -58 17 -9 30 -20 30 -26 0 -7 -12 -9
-30 -7 -37 6 -40 -9 -4 -18 53 -13 69 41 18 64 -33 16 -33 46 1 38 14 -4 25
-2 25 4 0 11 -53 14 -63 3z"/>
<path d="M1170 618 c11 -18 20 -45 20 -60 0 -16 5 -28 10 -28 6 0 10 12 10 28
0 15 9 42 20 60 24 38 10 44 -15 5 l-18 -26 -14 26 c-7 15 -18 27 -23 27 -5 0
-1 -15 10 -32z"/>
<path d="M1274 625 c-31 -48 7 -104 62 -91 35 9 29 23 -7 18 -34 -5 -49 8 -49
45 0 27 33 47 62 37 14 -4 18 -2 14 5 -13 21 -65 12 -82 -14z"/>
<path d="M1390 589 c0 -37 4 -58 10 -54 6 3 10 15 10 25 0 39 57 32 63 -9 2
-14 4 3 4 39 0 36 -2 53 -4 38 -4 -23 -9 -28 -34 -28 -24 0 -29 4 -29 25 0 14
-4 25 -10 25 -6 0 -10 -27 -10 -61z"/>
<path d="M1523 590 c0 -36 2 -50 4 -32 2 17 2 47 0 65 -2 17 -4 3 -4 -33z"/>
<path d="M1582 590 c-11 -33 -17 -60 -13 -60 5 0 11 7 15 15 8 21 53 19 65 -2
5 -10 12 -15 15 -12 9 8 -36 119 -48 119 -7 0 -22 -27 -34 -60z m48 -1 c0 -10
-7 -19 -15 -19 -16 0 -19 9 -9 34 8 20 24 11 24 -15z"/>
<path d="M1688 643 c20 -4 22 -10 22 -59 0 -34 4 -53 10 -49 6 3 10 28 10 55
0 38 4 50 18 53 9 3 -5 5 -33 4 -27 0 -40 -2 -27 -4z"/>
<path d="M1790 590 c0 -39 4 -59 10 -55 6 4 9 14 8 22 -5 26 17 25 32 -2 7
-14 17 -25 22 -25 11 0 10 14 -3 27 -8 8 -7 17 3 32 18 29 0 55 -41 59 l-31 3
0 -61z m57 34 c7 -20 -11 -38 -31 -31 -9 4 -12 13 -9 26 6 25 31 28 40 5z"/>
<path d="M1909 614 c12 -19 21 -47 22 -62 1 -25 1 -25 9 5 4 18 15 44 24 57
18 28 20 36 8 36 -5 0 -14 -12 -21 -27 l-13 -28 -14 28 c-8 15 -19 27 -25 27
-6 0 -2 -16 10 -36z"/>
<path d="M2085 617 c-7 -18 -16 -46 -20 -63 -5 -24 -4 -26 5 -11 14 22 70 24
70 2 0 -8 5 -15 10 -15 13 0 13 0 -11 64 -12 31 -26 56 -31 56 -5 0 -15 -15
-23 -33z m35 -28 c0 -10 -7 -19 -15 -19 -16 0 -19 9 -9 34 8 20 24 11 24 -15z"/>
<path d="M2192 588 c1 -50 2 -54 5 -20 2 23 8 42 14 42 5 0 9 -3 9 -7 0 -5 14
-24 30 -43 l29 -35 -1 65 c-1 60 -1 62 -7 20 l-6 -45 -30 42 c-16 24 -33 43
-37 43 -5 0 -7 -28 -6 -62z"/>
<path d="M2320 590 c0 -58 1 -60 25 -60 29 0 75 40 75 65 0 25 -38 55 -70 55
l-30 0 0 -60z m64 34 c31 -31 13 -74 -31 -74 -20 0 -23 5 -23 38 0 55 22 69
54 36z"/>
<path d="M505 388 c0 -53 0 -53 33 -56 43 -4 62 12 62 54 0 37 -21 54 -67 54
-28 0 -28 -1 -28 -52z m69 26 c19 -18 20 -28 6 -55 -6 -11 -21 -19 -35 -19
-23 0 -25 4 -25 45 0 38 3 45 19 45 11 0 27 -7 35 -16z"/>
<path d="M630 385 l0 -55 43 2 c36 1 38 2 10 5 -40 5 -46 33 -8 33 14 0 25 5
25 10 0 6 -11 10 -25 10 -37 0 -35 37 3 43 22 3 20 4 -10 6 l-38 1 0 -55z"/>
<path d="M835 404 c-9 -21 -18 -49 -21 -63 -5 -24 -4 -25 9 -8 18 22 63 22 71
1 4 -9 9 -15 11 -12 8 8 -31 112 -43 116 -6 2 -18 -14 -27 -34z m38 -14 c4
-15 0 -20 -14 -20 -21 0 -22 1 -13 24 8 22 21 20 27 -4z"/>
<path d="M940 382 l0 -59 37 6 c26 4 42 14 52 32 13 24 13 29 -2 53 -13 20
-26 26 -52 26 l-35 0 0 -58z m61 38 c21 -12 25 -50 7 -68 -7 -7 -22 -12 -35
-12 -20 0 -23 5 -23 38 0 53 12 63 51 42z"/>
<path d="M1070 385 l0 -55 33 0 c42 0 57 15 57 57 0 36 -21 53 -64 53 -25 0
-26 -3 -26 -55z m65 25 c25 -28 7 -70 -30 -70 -23 0 -25 4 -25 45 0 37 3 45
18 45 11 0 27 -9 37 -20z"/>
<path d="M1190 385 c0 -30 5 -55 10 -55 6 0 10 25 10 55 0 30 -4 55 -10 55 -5
0 -10 -25 -10 -55z"/>
<path d="M1256 424 c-22 -21 -20 -60 4 -84 24 -24 40 -25 66 -4 18 15 18 15
-3 9 -38 -11 -63 3 -63 34 0 37 22 55 56 47 17 -5 23 -3 19 4 -10 15 -62 12
-79 -6z"/>
<path d="M1373 433 c13 -3 17 -15 17 -54 0 -27 5 -49 10 -49 6 0 10 22 10 49
0 43 3 50 23 54 12 2 0 4 -28 4 -27 1 -42 -1 -32 -4z"/>
<path d="M1470 385 c0 -30 5 -55 10 -55 6 0 10 25 10 55 0 30 -4 55 -10 55 -5
0 -10 -25 -10 -55z"/>
<path d="M1535 424 c-24 -25 -16 -75 16 -93 24 -13 29 -13 53 2 19 13 26 26
26 50 0 18 -5 38 -12 45 -17 17 -64 15 -83 -4z m69 -10 c19 -18 20 -28 6 -55
-20 -37 -80 -15 -80 30 0 14 29 41 45 41 7 0 21 -7 29 -16z"/>
<path d="M1672 380 c1 -65 1 -65 7 -16 l6 50 28 -42 c15 -23 32 -42 37 -42 6
0 10 25 10 55 0 30 -3 55 -8 55 -4 0 -6 -18 -4 -40 3 -25 0 -40 -7 -40 -6 0
-11 4 -11 8 0 4 -13 23 -30 42 l-29 35 1 -65z"/>
<path d="M1857 422 c-23 -25 -21 -58 3 -82 24 -24 40 -25 66 -5 18 15 18 15
-9 9 -33 -8 -57 10 -57 41 0 31 24 49 56 41 17 -5 23 -3 19 4 -10 17 -61 11
-78 -8z"/>
<path d="M1983 385 c-12 -30 -17 -55 -12 -55 4 0 11 5 14 10 10 15 55 12 61
-5 4 -8 10 -13 14 -10 11 7 -32 115 -46 115 -6 0 -20 -25 -31 -55z m47 0 c0
-7 -7 -15 -15 -19 -15 -5 -22 24 -9 37 9 9 24 -2 24 -18z"/>
<path d="M2090 386 c0 -31 5 -56 10 -56 6 0 10 9 10 20 0 26 15 25 34 -2 9
-12 19 -19 23 -15 3 4 1 13 -5 19 -8 8 -8 15 -1 24 6 7 9 23 7 36 -2 19 -10
24 -40 26 l-38 3 0 -55z m65 19 c0 -13 -8 -21 -22 -23 -19 -3 -23 1 -23 23 0
22 4 26 23 23 14 -2 22 -10 22 -23z"/>
<path d="M2210 385 l0 -55 38 2 c36 1 36 1 5 5 -40 5 -46 33 -8 33 14 0 25 5
25 10 0 6 -12 10 -26 10 -37 0 -28 33 11 41 29 6 29 7 -7 8 l-38 1 0 -55z"/>
<path d="M743 373 c9 -2 23 -2 30 0 6 3 -1 5 -18 5 -16 0 -22 -2 -12 -5z"/>
</g>
</svg>
